<?xml version="1.0" encoding="utf-8"?>
<!-- Generator: Adobe Illustrator 23.0.2, SVG Export Plug-In . SVG Version: 6.00 Build 0)  -->
<svg version="1.1" id="Layer_1" xmlns="http://www.w3.org/2000/svg" xmlns:xlink="http://www.w3.org/1999/xlink" x="0px" y="0px"
	 viewBox="0 0 30.71 7.23" style="enable-background:new 0 0 30.71 7.23;" xml:space="preserve">
<style type="text/css">
	.st0{fill:#FFFF00;}
</style>
<path class="st0" d="M6.65,3.59c0,1.61-1.32,2.93-2.92,2.92C2.12,6.51,0.82,5.21,0.82,3.6c0-1.61,1.31-2.92,2.92-2.92
	C5.34,0.68,6.65,1.99,6.65,3.59z M3.73,0.89c-1.49,0-2.71,1.22-2.7,2.71c0.01,1.49,1.21,2.7,2.7,2.7c1.49,0,2.71-1.22,2.7-2.71
	C6.43,2.1,5.22,0.89,3.73,0.89z"/>
<path class="st0" d="M18.67,3.12c0,0.56,0,1.13,0,1.7c-0.14,0-0.28,0-0.43,0c0-0.81,0-1.62,0-2.44c0.25,0,0.49,0,0.74,0
	c0.07,0.48,0.13,0.96,0.2,1.44c0.01,0,0.02,0,0.02,0c0.03-0.19,0.05-0.38,0.08-0.58c0.04-0.27,0.07-0.53,0.11-0.8
	c0-0.02,0.04-0.06,0.05-0.06c0.23,0,0.45,0,0.69,0c0,0.82,0,1.63,0,2.45c-0.14,0-0.28,0-0.43,0c0-0.56,0-1.12,0-1.69
	c-0.01,0-0.02,0-0.02,0c-0.03,0.16-0.05,0.31-0.08,0.47c-0.06,0.39-0.12,0.77-0.18,1.16c-0.01,0.05-0.03,0.07-0.08,0.07
	c-0.1,0-0.2,0-0.29,0c-0.05,0-0.08-0.01-0.08-0.07c-0.08-0.51-0.17-1.03-0.26-1.54c-0.01-0.03-0.01-0.06-0.02-0.1
	C18.68,3.12,18.68,3.12,18.67,3.12z"/>
<path class="st0" d="M22.96,4.82c-0.16,0-0.31,0-0.47,0c-0.08-0.38-0.15-0.77-0.23-1.15c-0.01,0-0.02,0-0.02,0c0,0.03,0,0.06,0,0.09
	c0,0.32,0,0.64,0,0.97c0,0.08-0.02,0.11-0.1,0.11c-0.12-0.01-0.24,0-0.36,0c0-0.82,0-1.63,0-2.45c0.16,0,0.32,0,0.49,0
	c0.07,0.37,0.14,0.73,0.21,1.1c0.01,0,0.01,0,0.02,0c0-0.03,0-0.05,0-0.08c0-0.31,0-0.61,0-0.92c0-0.08,0.02-0.11,0.1-0.11
	c0.12,0.01,0.24,0,0.36,0C22.96,3.19,22.96,4,22.96,4.82z"/>
<path class="st0" d="M9.71,4.82c-0.17,0-0.33,0-0.49,0c0-0.81,0-1.63,0-2.44c0.01,0,0.02-0.01,0.02-0.01c0.27,0,0.53,0,0.8,0.01
	c0.17,0.01,0.28,0.11,0.32,0.27c0.05,0.21,0.06,0.42,0.02,0.64c-0.02,0.11-0.09,0.2-0.21,0.25c0.17,0.06,0.2,0.18,0.2,0.32
	c0,0.32,0,0.63,0,0.95c-0.16,0-0.31,0-0.48,0c0-0.15,0-0.29,0-0.44c0-0.17,0-0.34,0-0.51c0-0.14-0.04-0.17-0.19-0.16
	C9.71,4.07,9.71,4.44,9.71,4.82z M9.72,3.27C9.87,3.3,9.93,3.26,9.94,3.11c0-0.04,0-0.07,0-0.11c0-0.18-0.04-0.21-0.22-0.17
	C9.72,2.97,9.72,3.12,9.72,3.27z"/>
<path class="st0" d="M27.15,4.82c0-0.81,0-1.62,0-2.45c0.04,0,0.08,0,0.12,0c0.22,0,0.45-0.01,0.67,0.01
	c0.22,0.01,0.33,0.11,0.37,0.33c0.03,0.17,0.02,0.35,0.02,0.52c0,0.14-0.07,0.25-0.22,0.31c0.2,0.09,0.2,0.25,0.2,0.42
	c0,0.25,0,0.5,0,0.75c0,0.03,0,0.07,0,0.1c-0.16,0-0.31,0-0.47,0c0-0.18,0-0.36,0-0.54c0-0.14,0-0.28,0-0.41
	c0-0.14-0.04-0.17-0.19-0.15c0,0.37,0,0.73,0,1.1C27.47,4.82,27.31,4.82,27.15,4.82z M27.64,2.82c0,0.15,0,0.3,0,0.45
	c0.16,0.02,0.21-0.02,0.22-0.17c0-0.03,0-0.06,0-0.09C27.86,2.83,27.83,2.81,27.64,2.82z"/>
<path class="st0" d="M11.75,3.57c0,0.25,0.02,0.5,0,0.75c-0.03,0.34-0.25,0.52-0.58,0.52c-0.33,0-0.55-0.19-0.59-0.52
	c-0.01-0.08-0.01-0.15-0.01-0.23c0-0.38,0-0.76,0-1.14c0.01-0.4,0.22-0.61,0.61-0.6c0.37,0,0.58,0.21,0.59,0.59
	c0.01,0.21,0,0.42,0,0.63C11.76,3.57,11.76,3.57,11.75,3.57z M11.28,3.59C11.28,3.59,11.28,3.59,11.28,3.59c0-0.21,0-0.41,0-0.62
	c0-0.04,0-0.08-0.02-0.11c-0.02-0.03-0.06-0.07-0.09-0.07c-0.03,0-0.08,0.03-0.1,0.05c-0.02,0.03-0.03,0.07-0.03,0.11
	c0,0.42,0,0.83,0,1.25c0,0.13,0.05,0.18,0.12,0.18c0.08,0,0.11-0.06,0.11-0.19C11.28,4,11.28,3.8,11.28,3.59z"/>
<path class="st0" d="M25.31,3.82c-0.06,0-0.09-0.01-0.13-0.01c0-0.13,0-0.27,0-0.41c0.19,0,0.38,0,0.57,0c0,0.47,0,0.94,0,1.42
	c-0.06-0.01-0.14,0.01-0.18-0.02c-0.04-0.03-0.06-0.11-0.09-0.18c-0.01,0.01-0.02,0.02-0.03,0.03c-0.12,0.17-0.29,0.21-0.49,0.18
	c-0.2-0.03-0.31-0.16-0.36-0.35c-0.03-0.1-0.05-0.2-0.05-0.31c0-0.43-0.01-0.86,0.01-1.29c0.02-0.47,0.54-0.72,0.94-0.46
	c0.11,0.07,0.18,0.17,0.2,0.29c0.03,0.13,0.03,0.27,0.05,0.4c0.01,0.05-0.01,0.07-0.07,0.07c-0.11,0-0.22,0-0.33,0
	c-0.05,0-0.07-0.02-0.07-0.07c0-0.07,0-0.15-0.01-0.22c0-0.06-0.03-0.11-0.1-0.11c-0.07,0-0.12,0.03-0.14,0.1
	c-0.01,0.04-0.01,0.08-0.01,0.12c0,0.38,0,0.77,0,1.15c0,0.05,0,0.1,0.01,0.15c0.01,0.06,0.05,0.1,0.12,0.1
	c0.06,0,0.11-0.04,0.11-0.1C25.29,4.14,25.3,3.98,25.31,3.82z"/>
<path class="st0" d="M21.6,4.82c-0.16,0-0.3,0-0.45,0c-0.01-0.11-0.02-0.21-0.02-0.31c0-0.06-0.03-0.09-0.09-0.08
	c-0.07,0-0.14,0-0.22,0c-0.01,0.11-0.02,0.21-0.02,0.31c0,0.06-0.02,0.09-0.09,0.09c-0.12-0.01-0.24,0-0.38,0
	c0.01-0.11,0.01-0.21,0.02-0.3c0.06-0.6,0.12-1.21,0.18-1.81c0.01-0.09,0.02-0.18,0.02-0.27c0-0.05,0.02-0.08,0.08-0.07
	c0.23,0,0.46,0,0.69,0c0.05,0,0.07,0.02,0.07,0.07c0.07,0.73,0.14,1.45,0.2,2.18C21.59,4.68,21.59,4.74,21.6,4.82z M21.08,4.04
	C21.04,3.61,21,3.2,20.97,2.79c-0.01,0-0.02,0-0.03,0c-0.03,0.41-0.06,0.83-0.09,1.25C20.93,4.04,20.99,4.04,21.08,4.04z"/>
<path class="st0" d="M24.41,4.82c-0.15,0-0.29,0-0.45,0c-0.01-0.13-0.03-0.26-0.04-0.39c-0.1,0-0.19,0-0.3,0
	c-0.01,0.13-0.02,0.26-0.04,0.39c-0.15,0-0.3,0-0.46,0c0.01-0.11,0.01-0.22,0.03-0.32c0.07-0.69,0.13-1.37,0.2-2.06
	c0-0.05,0.02-0.07,0.07-0.07c0.23,0,0.46,0,0.69,0c0.06,0,0.07,0.02,0.08,0.07c0.04,0.39,0.07,0.77,0.11,1.16
	c0.04,0.38,0.07,0.75,0.11,1.13C24.41,4.76,24.41,4.78,24.41,4.82z M23.89,4.04c-0.04-0.42-0.07-0.83-0.11-1.24
	c-0.01,0-0.02,0-0.03,0c-0.03,0.41-0.06,0.83-0.09,1.24C23.74,4.04,23.8,4.04,23.89,4.04z"/>
<path class="st0" d="M15.67,3.33c-0.18,0-0.33,0-0.49,0c0-0.14,0-0.27,0-0.4c0-0.04-0.02-0.09-0.04-0.12
	c-0.05-0.06-0.16-0.02-0.18,0.06c-0.01,0.05-0.01,0.1-0.01,0.15c0,0.38,0,0.76,0,1.14c0,0.04,0,0.08,0.01,0.12
	c0.01,0.06,0.04,0.11,0.11,0.11c0.07,0,0.11-0.05,0.11-0.11c0.01-0.08,0.01-0.16,0.01-0.24c0-0.09,0-0.18,0-0.27
	c0.17,0,0.32,0,0.47,0c0,0.22,0.02,0.43,0,0.65c-0.02,0.2-0.15,0.34-0.35,0.39c-0.14,0.04-0.28,0.05-0.43,0.01
	c-0.23-0.06-0.39-0.26-0.4-0.55c-0.01-0.46-0.01-0.92,0.01-1.38c0.03-0.49,0.56-0.72,0.97-0.44c0.11,0.07,0.18,0.18,0.19,0.3
	C15.67,2.95,15.66,3.14,15.67,3.33z"/>
<path class="st0" d="M16.93,3.91c0.16,0,0.31,0,0.47,0c0,0.03,0,0.07,0,0.1c0,0.09,0,0.18,0.01,0.27c0.01,0.07,0.04,0.12,0.12,0.12
	c0.08,0,0.11-0.06,0.11-0.12c0.01-0.16-0.02-0.3-0.13-0.42c-0.12-0.12-0.24-0.24-0.36-0.37C16.93,3.27,16.88,3,16.97,2.71
	c0.06-0.19,0.19-0.32,0.39-0.34c0.12-0.01,0.24-0.01,0.35,0.01c0.24,0.05,0.37,0.24,0.39,0.53c0,0.05,0,0.09,0,0.14
	c-0.16,0-0.32,0-0.49,0c0-0.05,0-0.1,0-0.15c0-0.08-0.05-0.12-0.12-0.12c-0.07,0.01-0.12,0.06-0.1,0.13
	C17.41,3,17.45,3.08,17.5,3.13c0.11,0.12,0.24,0.24,0.36,0.35c0.34,0.31,0.3,0.79,0.18,1.08c-0.09,0.21-0.31,0.31-0.59,0.27
	c-0.34-0.04-0.49-0.2-0.52-0.56C16.92,4.16,16.93,4.04,16.93,3.91z"/>
<path class="st0" d="M7.88,2.38c0.26,0,0.52-0.01,0.78,0C8.81,2.4,8.92,2.49,8.97,2.64c0.12,0.32,0.12,0.65,0,0.97
	C8.91,3.78,8.75,3.84,8.58,3.85c-0.07,0-0.15,0-0.23,0c0,0.04,0,0.07,0,0.1c0,0.26,0,0.52,0,0.78c0,0.07-0.02,0.1-0.09,0.09
	c-0.12-0.01-0.24,0-0.37,0C7.88,4,7.88,3.19,7.88,2.38z M8.35,2.82c0,0.2,0,0.39,0,0.59c0.13,0.01,0.2-0.03,0.21-0.14
	c0.01-0.1,0.01-0.21,0-0.31C8.55,2.83,8.49,2.8,8.35,2.82z"/>
<path class="st0" d="M14.25,3.78c-0.13,0-0.25,0-0.37,0c-0.06,0-0.09,0.02-0.08,0.08c0,0.14,0,0.28,0,0.41
	c0,0.06,0.02,0.08,0.08,0.08c0.14,0,0.28,0,0.43,0c0,0.16,0,0.31,0,0.46c-0.33,0-0.66,0-0.99,0c0-0.81,0-1.62,0-2.44
	c0.02,0,0.05-0.01,0.07-0.01c0.27,0,0.54,0,0.81,0c0.07,0,0.09,0.02,0.09,0.09c0,0.12,0,0.24,0,0.38c-0.16,0-0.32,0-0.48,0
	c0,0.17,0,0.32,0,0.48c0.15,0,0.29,0,0.45,0C14.25,3.47,14.25,3.62,14.25,3.78z"/>
<path class="st0" d="M26.93,2.84c-0.16,0-0.31,0-0.47,0c0,0.16,0,0.32,0,0.48c0.15,0,0.29,0,0.45,0c0,0.16,0,0.3,0,0.46
	c-0.15,0-0.29,0-0.45,0c0,0.19,0,0.38,0,0.58c0.16,0,0.33,0,0.5,0c0,0.16,0,0.31,0,0.47c-0.33,0-0.66,0-1,0c0-0.81,0-1.62,0-2.44
	c0.32,0,0.63,0,0.96,0C26.93,2.52,26.93,2.67,26.93,2.84z"/>
<path class="st0" d="M12.62,2.37c0.17,0,0.32,0,0.48,0c0,0.04,0,0.07,0,0.1c0,0.56,0,1.12,0,1.68c0,0.08,0,0.16-0.02,0.24
	c-0.05,0.21-0.17,0.36-0.39,0.42c-0.23,0.06-0.44,0.03-0.62-0.13c-0.09-0.08-0.15-0.18-0.15-0.3c-0.01-0.23,0-0.47,0-0.71
	c0.16,0,0.31,0,0.47,0c0,0.18,0,0.35,0,0.52c0,0.03,0,0.07,0,0.1c0.01,0.06,0.05,0.11,0.11,0.09c0.04-0.01,0.08-0.06,0.1-0.1
	c0.02-0.02,0.01-0.07,0.01-0.1c0-0.57,0-1.14,0-1.71C12.62,2.45,12.62,2.42,12.62,2.37z"/>
<path class="st0" d="M16.06,2.84c-0.1,0-0.19,0-0.28,0c0-0.16,0-0.31,0-0.46c0.35,0,0.7,0,1.05,0c0,0.15,0,0.3,0,0.46
	c-0.09,0-0.18,0-0.28,0c0,0.67,0,1.32,0,1.99c-0.15,0-0.3,0-0.44,0c-0.02,0-0.04-0.03-0.04-0.05c-0.01-0.03,0-0.05,0-0.08
	c0-0.58,0-1.15,0-1.73C16.06,2.92,16.06,2.88,16.06,2.84z"/>
<path class="st0" d="M4.55,5.05c-0.04,0-0.07,0-0.1,0c-0.48,0-0.96,0-1.44,0c-0.08,0-0.1-0.02-0.11-0.1C2.84,4.5,2.77,4.05,2.7,3.6
	C2.68,3.45,2.77,3.35,2.91,3.34c0.11-0.01,0.2,0.02,0.29,0.1C3.52,3.72,4.01,3.7,4.32,3.39c0.06-0.06,0.25-0.08,0.34-0.03
	C4.75,3.41,4.78,3.5,4.76,3.62C4.69,4.09,4.62,4.56,4.55,5.05z M3.73,4.98c0.05-0.06,0.1-0.11,0.15-0.15
	c0.06-0.05,0.07-0.11,0.05-0.18C3.88,4.43,3.83,4.22,3.79,4C3.78,3.97,3.79,3.93,3.81,3.91c0.04-0.06,0.05-0.11,0-0.17
	c-0.04-0.05-0.12-0.05-0.16,0c-0.05,0.05-0.04,0.11,0,0.17c0.02,0.03,0.03,0.07,0.02,0.1c-0.04,0.22-0.1,0.44-0.14,0.66
	C3.53,4.71,3.53,4.76,3.55,4.79C3.6,4.85,3.67,4.91,3.73,4.98z"/>
<path class="st0" d="M3.75,2.14c0.38,0.01,0.67,0.32,0.66,0.69C4.4,3.2,4.09,3.49,3.71,3.48C3.35,3.48,3.05,3.17,3.06,2.8
	C3.06,2.43,3.37,2.13,3.75,2.14z"/>
</svg>
