<?xml version="1.0" encoding="utf-8"?>
<!-- Generator: Adobe Illustrator 23.0.2, SVG Export Plug-In . SVG Version: 6.00 Build 0)  -->
<svg version="1.1" id="Layer_1" xmlns="http://www.w3.org/2000/svg" xmlns:xlink="http://www.w3.org/1999/xlink" x="0px" y="0px"
	 viewBox="0 0 396.39 125.94" style="enable-background:new 0 0 396.39 125.94;" xml:space="preserve">
<style type="text/css">
	.st0{fill:#494949;}
</style>
<path class="st0" d="M86.44,67.01c0.04,22-18.06,40.09-40.02,40C24.32,106.92,6.55,89.12,6.51,67.06
	c-0.03-22.06,17.94-40.05,39.98-40C68.52,27.1,86.39,44.98,86.44,67.01z M46.46,30.02c-20.41,0-37.11,16.73-37,37.07
	c0.11,20.45,16.61,36.94,36.99,36.96c20.38,0.01,37.09-16.72,37.02-37.07C83.4,46.58,66.81,30.02,46.46,30.02z"/>
<path class="st0" d="M251.17,60.47c0,7.72,0,15.44,0,23.27c-1.98,0-3.89,0-5.88,0c0-11.14,0-22.24,0-33.43c3.36,0,6.66,0,10.09,0
	c0.91,6.56,1.82,13.12,2.73,19.68c0.1,0,0.21-0.01,0.31-0.01c0.37-2.63,0.74-5.27,1.11-7.9c0.51-3.66,0.99-7.32,1.54-10.97
	c0.05-0.32,0.48-0.84,0.75-0.84c3.1-0.06,6.21-0.04,9.42-0.04c0,11.19,0,22.29,0,33.5c-1.88,0-3.78,0-5.84,0c0-7.69,0-15.39,0-23.09
	c-0.11-0.01-0.21-0.02-0.32-0.03c-0.35,2.15-0.72,4.29-1.06,6.44c-0.85,5.3-1.7,10.6-2.52,15.91c-0.11,0.7-0.41,0.91-1.07,0.9
	c-1.34-0.03-2.69-0.04-4.03,0c-0.72,0.02-1.03-0.2-1.16-0.96c-1.16-7.03-2.35-14.06-3.55-21.09c-0.08-0.45-0.2-0.89-0.31-1.33
	C251.32,60.47,251.24,60.47,251.17,60.47z"/>
<path class="st0" d="M309.84,83.77c-2.14,0-4.19,0-6.39,0c-1.06-5.26-2.12-10.53-3.18-15.81c-0.1,0-0.21,0-0.31-0.01
	c0,0.41,0,0.82,0,1.24c0,4.41-0.03,8.82,0.02,13.23c0.01,1.07-0.24,1.51-1.4,1.44c-1.62-0.1-3.25-0.03-4.96-0.03
	c0-11.25,0-22.36,0-33.54c2.25,0,4.41,0,6.71,0c0.97,5.01,1.94,10.02,2.9,15.02c0.09,0.01,0.17,0.01,0.26,0.02
	c0.02-0.36,0.05-0.73,0.05-1.09c0-4.2,0.03-8.4-0.02-12.6c-0.01-1.05,0.22-1.52,1.39-1.45c1.62,0.1,3.25,0.03,4.94,0.03
	C309.84,61.47,309.84,72.54,309.84,83.77z"/>
<path class="st0" d="M128.37,83.78c-2.33,0-4.46,0-6.67,0c0-11.16,0-22.27,0-33.39c0.12-0.05,0.23-0.14,0.34-0.13
	c3.65,0.03,7.3,0,10.95,0.12c2.35,0.08,3.8,1.5,4.37,3.7c0.75,2.88,0.82,5.81,0.27,8.74c-0.29,1.57-1.21,2.71-2.91,3.48
	c2.28,0.85,2.75,2.53,2.75,4.43c0.02,4.32,0,8.63,0,13.03c-2.24,0-4.31,0-6.51,0c0-2.04,0-4,0-5.97c0-2.35,0.02-4.7-0.01-7.05
	c-0.02-1.87-0.57-2.33-2.6-2.15C128.37,73.6,128.37,78.62,128.37,83.78z M128.43,62.58c2.18,0.43,2.91-0.1,3.02-2.15
	c0.03-0.5,0.02-1,0.01-1.51c-0.05-2.45-0.51-2.82-3.04-2.38C128.43,58.52,128.43,60.51,128.43,62.58z"/>
<path class="st0" d="M367.26,83.75c0-11.16,0-22.24,0-33.52c0.55,0,1.08,0,1.61,0c3.07,0.02,6.14-0.07,9.2,0.1
	c3.06,0.17,4.54,1.45,5,4.5c0.35,2.34,0.31,4.75,0.25,7.13c-0.05,1.87-0.92,3.38-2.95,4.3c2.77,1.17,2.71,3.46,2.7,5.75
	c-0.02,3.45-0.03,6.89-0.04,10.34c0,0.45,0,0.9,0,1.42c-2.21,0-4.28,0-6.48,0c0-2.51,0-4.93,0-7.36c0-1.89,0.01-3.78-0.01-5.67
	c-0.02-1.86-0.61-2.35-2.63-2.11c0,5,0,10.02,0,15.13C371.66,83.75,369.54,83.75,367.26,83.75z M374.03,56.47c0,2.11,0,4.14,0,6.14
	c2.24,0.34,2.92-0.21,3.01-2.37c0.02-0.42,0.01-0.84,0.01-1.25C377.02,56.52,376.67,56.21,374.03,56.47z"/>
<path class="st0" d="M156.37,66.66c0,3.44,0.22,6.9-0.05,10.32c-0.37,4.6-3.41,7.15-8,7.16c-4.57,0-7.49-2.56-8.07-7.14
	c-0.13-1.04-0.2-2.09-0.2-3.14c-0.02-5.21-0.07-10.42,0.02-15.63c0.09-5.51,3.04-8.34,8.42-8.29c5.08,0.05,7.89,2.85,8.06,8.15
	c0.09,2.85,0.02,5.71,0.02,8.57C156.5,66.66,156.44,66.66,156.37,66.66z M149.87,67.01C149.87,67.01,149.87,67.01,149.87,67.01
	c0.01-2.81,0.02-5.63,0-8.44c0-0.5,0.03-1.07-0.21-1.47c-0.26-0.44-0.78-0.97-1.22-1c-0.46-0.04-1.11,0.35-1.42,0.75
	c-0.31,0.38-0.41,1.02-0.41,1.54c-0.02,5.71-0.05,11.42,0.01,17.13c0.02,1.81,0.62,2.51,1.68,2.5c1.04-0.01,1.55-0.79,1.56-2.57
	C149.88,72.64,149.87,69.83,149.87,67.01z"/>
<path class="st0" d="M342.07,70.09c-0.78-0.06-1.23-0.09-1.79-0.13c0-1.84,0-3.66,0-5.56c2.61,0,5.19,0,7.86,0
	c0,6.41,0,12.82,0,19.46c-0.83-0.07-1.88,0.13-2.45-0.3c-0.61-0.46-0.77-1.51-1.18-2.44c-0.19,0.17-0.31,0.25-0.39,0.36
	c-1.67,2.31-3.96,2.93-6.67,2.49c-2.74-0.45-4.28-2.21-4.99-4.73c-0.38-1.36-0.63-2.8-0.64-4.21c-0.04-5.88-0.17-11.77,0.11-17.63
	c0.31-6.46,7.35-9.81,12.86-6.34c1.51,0.95,2.45,2.34,2.79,4.04c0.36,1.8,0.46,3.65,0.68,5.48c0.08,0.7-0.2,0.99-0.92,0.98
	c-1.51-0.03-3.02-0.03-4.54,0c-0.72,0.01-0.94-0.32-0.94-0.99c0-1.01-0.05-2.01-0.12-3.02c-0.07-0.84-0.46-1.46-1.38-1.51
	c-0.95-0.05-1.65,0.37-1.9,1.31c-0.14,0.52-0.15,1.08-0.15,1.62c-0.01,5.25-0.01,10.5,0,15.75c0,0.67,0.06,1.35,0.2,2
	c0.18,0.83,0.73,1.31,1.62,1.3c0.88-0.01,1.5-0.5,1.57-1.34C341.89,74.53,341.96,72.36,342.07,70.09z"/>
<path class="st0" d="M291.29,83.77c-2.16,0-4.15,0-6.23,0c-0.12-1.48-0.27-2.89-0.34-4.3c-0.04-0.85-0.37-1.18-1.24-1.12
	c-0.96,0.07-1.92,0.01-3.06,0.01c-0.11,1.47-0.25,2.88-0.3,4.28c-0.03,0.88-0.31,1.27-1.27,1.23c-1.67-0.08-3.34-0.02-5.22-0.02
	c0.11-1.47,0.2-2.82,0.33-4.18c0.81-8.26,1.63-16.53,2.44-24.79c0.12-1.21,0.23-2.42,0.3-3.64c0.04-0.72,0.31-1.03,1.08-1.02
	c3.15,0.03,6.3,0.03,9.45,0c0.69-0.01,0.93,0.24,1,0.94c0.92,9.94,1.86,19.88,2.8,29.81C291.11,81.87,291.2,82.78,291.29,83.77z
	 M284.09,73.06c-0.51-5.79-1-11.43-1.49-17.07c-0.15,0-0.29,0.01-0.44,0.01c-0.42,5.67-0.84,11.35-1.26,17.06
	C282.04,73.06,282.95,73.06,284.09,73.06z"/>
<path class="st0" d="M329.76,83.76c-2.04,0-4.04,0-6.13,0c-0.18-1.79-0.35-3.53-0.53-5.34c-1.37,0-2.65,0-4.12,0
	c-0.16,1.76-0.32,3.52-0.49,5.34c-2.11,0-4.11,0-6.3,0c0.12-1.51,0.2-2.96,0.34-4.4c0.91-9.4,1.83-18.8,2.73-28.21
	c0.07-0.69,0.29-0.95,0.99-0.95c3.15,0.02,6.3,0.03,9.45,0c0.77-0.01,1.01,0.3,1.08,1.02c0.49,5.31,1,10.62,1.51,15.92
	c0.49,5.14,0.99,10.28,1.47,15.42C329.79,82.95,329.76,83.32,329.76,83.76z M322.63,73.07c-0.51-5.77-1.01-11.41-1.5-17.05
	c-0.15,0.01-0.3,0.01-0.44,0.02c-0.41,5.65-0.82,11.31-1.24,17.03C320.56,73.07,321.47,73.07,322.63,73.07z"/>
<path class="st0" d="M210.07,63.43c-2.41,0-4.5,0-6.74,0c0-1.87,0.04-3.66-0.03-5.46c-0.02-0.55-0.21-1.21-0.57-1.59
	c-0.75-0.8-2.21-0.3-2.46,0.81c-0.14,0.65-0.15,1.34-0.15,2.01c-0.01,5.21-0.01,10.42,0,15.63c0,0.54,0.03,1.09,0.1,1.63
	c0.11,0.88,0.53,1.53,1.5,1.55c0.99,0.02,1.45-0.66,1.55-1.51c0.12-1.08,0.08-2.18,0.09-3.27c0.01-1.21,0-2.42,0-3.73
	c2.27,0,4.43,0,6.43,0c0,3,0.24,5.95-0.07,8.84c-0.29,2.76-2.06,4.6-4.83,5.35c-1.94,0.52-3.9,0.62-5.85,0.1
	c-3.22-0.87-5.37-3.56-5.45-7.48c-0.12-6.29-0.18-12.61,0.19-18.89c0.39-6.74,7.68-9.89,13.25-5.98c1.45,1.02,2.47,2.4,2.65,4.12
	C209.96,58.13,209.95,60.73,210.07,63.43z"/>
<path class="st0" d="M227.3,71.41c2.16,0,4.2,0,6.44,0c0,0.45,0,0.9,0,1.34c0.02,1.22-0.04,2.44,0.08,3.65
	c0.09,0.96,0.6,1.67,1.71,1.63c1.06-0.04,1.45-0.77,1.52-1.68c0.16-2.13-0.24-4.1-1.79-5.69c-1.64-1.68-3.31-3.34-4.96-5.01
	c-3.05-3.09-3.71-6.75-2.52-10.81c0.78-2.65,2.54-4.38,5.33-4.68c1.6-0.17,3.29-0.16,4.85,0.17c3.28,0.69,5.05,3.26,5.35,7.33
	c0.05,0.62,0.01,1.25,0.01,1.98c-2.19,0-4.35,0-6.7,0c0-0.69,0.02-1.35-0.01-2.01c-0.05-1.13-0.64-1.69-1.63-1.6
	c-0.96,0.09-1.69,0.86-1.4,1.84c0.29,1.01,0.8,2.05,1.49,2.82c1.55,1.71,3.22,3.31,4.94,4.86c4.65,4.19,4.12,10.87,2.47,14.81
	c-1.22,2.91-4.21,4.2-8.06,3.71c-4.65-0.59-6.7-2.74-7.09-7.61C227.19,74.83,227.3,73.19,227.3,71.41z"/>
<path class="st0" d="M103.26,50.44c3.62,0,7.14-0.14,10.64,0.05c2.06,0.11,3.6,1.45,4.32,3.41c1.64,4.41,1.62,8.88,0,13.29
	c-0.88,2.41-2.99,3.15-5.35,3.28c-1,0.06-2.01,0.01-3.16,0.01c-0.03,0.52-0.06,0.96-0.07,1.41c-0.01,3.57-0.04,7.14,0.02,10.71
	c0.02,1.02-0.31,1.3-1.29,1.26c-1.67-0.07-3.34-0.02-5.12-0.02C103.26,72.62,103.26,61.52,103.26,50.44z M109.75,56.37
	c0,2.69,0,5.38,0,8.08c1.84,0.12,2.76-0.41,2.93-1.91c0.15-1.41,0.16-2.86-0.01-4.26C112.45,56.59,111.59,56.11,109.75,56.37z"/>
<path class="st0" d="M190.59,69.53c-1.75,0-3.42,0.04-5.09-0.02c-0.88-0.03-1.18,0.26-1.15,1.15c0.05,1.89,0.05,3.78,0,5.67
	c-0.02,0.82,0.26,1.1,1.09,1.08c1.93-0.05,3.86-0.02,5.88-0.02c0,2.15,0,4.22,0,6.37c-4.52,0-9,0-13.58,0c0-11.13,0-22.23,0-33.43
	c0.31-0.03,0.63-0.1,0.95-0.1c3.7-0.01,7.4,0.02,11.09-0.02c0.93-0.01,1.27,0.25,1.23,1.2c-0.06,1.67-0.02,3.35-0.02,5.19
	c-2.21,0-4.33,0-6.54,0c0,2.28,0,4.39,0,6.64c2.02,0,4.02,0,6.13,0C190.59,65.35,190.59,67.34,190.59,69.53z"/>
<path class="st0" d="M364.28,56.63c-2.13,0-4.22,0-6.39,0c0,2.22,0,4.34,0,6.61c2,0,4.03,0,6.14,0c0,2.14,0,4.13,0,6.24
	c-2.02,0-4.02,0-6.12,0c0,2.65,0,5.18,0,7.88c2.26,0,4.54,0,6.88,0c0,2.21,0,4.25,0,6.38c-4.53,0-9.04,0-13.64,0
	c0-11.13,0-22.23,0-33.43c4.35,0,8.69,0,13.13,0C364.28,52.37,364.28,54.4,364.28,56.63z"/>
<path class="st0" d="M168.27,50.28c2.3,0,4.39,0,6.62,0c0.03,0.49,0.07,0.93,0.07,1.37c0,7.68,0.01,15.37-0.01,23.05
	c0,1.08-0.06,2.2-0.31,3.25c-0.68,2.91-2.38,5-5.34,5.8c-3.1,0.84-6,0.38-8.48-1.8c-1.21-1.07-1.99-2.48-2.05-4.06
	c-0.12-3.22-0.04-6.44-0.04-9.74c2.13,0,4.2,0,6.42,0c0,2.43,0,4.81,0,7.19c0,0.46-0.03,0.93,0.06,1.38
	c0.16,0.84,0.73,1.48,1.57,1.26c0.56-0.15,1.07-0.77,1.41-1.31c0.21-0.34,0.08-0.9,0.08-1.36c0-7.81,0-15.62,0-23.43
	C168.27,51.38,168.27,50.88,168.27,50.28z"/>
<path class="st0" d="M215.3,56.64c-1.37,0-2.57,0-3.88,0c0-2.15,0-4.18,0-6.31c4.77,0,9.54,0,14.4,0c0,2.03,0,4.06,0,6.27
	c-1.23,0-2.5,0-3.9,0c0,9.14,0,18.11,0,27.24c-2.09,0-4.05,0.02-6-0.03c-0.21,0-0.51-0.37-0.58-0.62c-0.1-0.35-0.04-0.75-0.04-1.13
	c0-7.9,0-15.79,0-23.69C215.3,57.83,215.3,57.29,215.3,56.64z"/>
<path class="st0" d="M57.67,86.93c-0.5,0-0.91,0-1.33,0c-6.59,0-13.19-0.03-19.78,0.03c-1.08,0.01-1.38-0.3-1.53-1.36
	c-0.86-6.19-1.83-12.36-2.74-18.54c-0.29-2,0.94-3.4,2.95-3.53c1.51-0.1,2.7,0.21,3.92,1.32c4.33,3.94,11.08,3.61,15.29-0.56
	c0.87-0.86,3.41-1.08,4.68-0.4c1.21,0.64,1.69,1.82,1.45,3.42C59.62,73.78,58.67,80.25,57.67,86.93z M46.46,86.05
	c0.74-0.78,1.32-1.5,2.01-2.1c0.81-0.7,0.9-1.44,0.66-2.45c-0.71-2.97-1.33-5.97-1.93-8.96c-0.08-0.39,0.08-0.94,0.33-1.26
	c0.6-0.78,0.69-1.52,0.04-2.27c-0.59-0.68-1.64-0.68-2.24-0.02c-0.66,0.74-0.59,1.46,0.01,2.26c0.26,0.36,0.42,0.95,0.33,1.38
	c-0.6,3.04-1.31,6.06-1.92,9.09c-0.1,0.51-0.08,1.23,0.2,1.61C44.66,84.28,45.54,85.08,46.46,86.05z"/>
<path class="st0" d="M46.63,47.07c5.15,0.1,9.22,4.33,9.09,9.45c-0.13,5.12-4.34,9.07-9.56,8.98c-4.95-0.09-9.05-4.34-8.97-9.33
	C37.27,51.03,41.49,46.96,46.63,47.07z"/>
</svg>
